<?xml version="1.0" encoding="UTF-8"?>
<svg width="20px" height="24px" viewBox="0 0 20 24" version="1.1" xmlns="http://www.w3.org/2000/svg" xmlns:xlink="http://www.w3.org/1999/xlink">
    <!-- Generator: Sketch 49 (51002) - http://www.bohemiancoding.com/sketch -->
    <title>shuoming copy</title>
    <desc>Created with Sketch.</desc>
    <defs></defs>
    <g id="Page-1" stroke="none" stroke-width="1" fill="none" fill-rule="evenodd">
        <g id="人才补贴详情" transform="translate(-94.000000, -828.000000)" fill="#FFFFFF" fill-rule="nonzero">
            <g id="shuoming-copy" transform="translate(94.000000, 828.000000)">
                <path d="M12.5017441,0 L2.50034882,0 C1.11901772,0 0,1.07434695 0,2.40053583 L0,21.5994642 C0,22.925653 1.11901772,24 2.50034882,24 L17.4996512,24 C18.8809823,24 20,22.925653 20,21.5994642 L20,7.2016075 L12.5017441,0 Z M15.0020929,14.4005358 L5.00069764,14.4005358 L5.00069764,12 L14.9993024,12 L14.9993024,14.4005358 L15.0020929,14.4005358 Z M12.5017441,19.2016075 L5.00069764,19.2016075 L5.00069764,16.8010717 L12.4989535,16.8010717 L12.4989535,19.2016075 L12.5017441,19.2016075 Z M11.2515697,8.39919625 L11.2515697,1.80040188 L18.1247384,8.39919625 L11.2515697,8.39919625 Z" id="Shape"></path>
            </g>
        </g>
    </g>
</svg>