<?xml version="1.0" encoding="UTF-8"?>
<svg width="22px" height="18px" viewBox="0 0 22 18" version="1.1" xmlns="http://www.w3.org/2000/svg" xmlns:xlink="http://www.w3.org/1999/xlink">
    <!-- Generator: Sketch 49 (51002) - http://www.bohemiancoding.com/sketch -->
    <title>wenjian copy</title>
    <desc>Created with Sketch.</desc>
    <defs></defs>
    <g id="Page-1" stroke="none" stroke-width="1" fill="none" fill-rule="evenodd">
        <g id="人才补贴详情" transform="translate(-94.000000, -1093.000000)" fill="#FFFFFF" fill-rule="nonzero">
            <g id="wenjian-copy" transform="translate(94.000000, 1093.000000)">
                <path d="M20.4470603,2.23746712 L10.9975938,2.23746712 L8.92939732,0 L1.55293973,0 C0.695283482,0 6.97854473e-16,0.717681481 6.97854473e-16,1.60296644 L6.97854473e-16,3.6734637 L0.00859375,3.6734637 C0.00292788361,3.72892899 5.94290205e-05,3.78466082 0,3.84043356 L0,4.89570438 L22,4.89570438 L22,3.84043356 C22,2.95879822 21.3011808,2.23746712 20.4470603,2.23746712 Z M2.84217094e-14,16.3970336 C2.84217094e-14,17.2786689 0.698819196,18 1.55293973,18 L20.4470603,18 C21.3011808,18 22,17.2786689 22,16.3970336 L22,5.96435712 L2.84217094e-14,5.96435712 L2.84217094e-14,16.3970336 Z" id="Shape"></path>
            </g>
        </g>
    </g>
</svg>