<svg 
 xmlns="http://www.w3.org/2000/svg"
 xmlns:xlink="http://www.w3.org/1999/xlink"
 width="20px" height="20px">
<path fill-rule="evenodd"  opacity="0.502" fill="rgb(245, 245, 245)"
 d="M17.213,16.914 C18.935,15.118 20.000,12.685 20.000,10.000 C20.000,5.086 16.453,1.010 11.783,0.168 C11.777,0.167 11.773,0.166 11.767,0.165 C11.193,0.063 10.604,-0.000 10.000,-0.000 C4.477,-0.000 0.000,4.477 0.000,10.000 C0.000,12.695 1.071,15.137 2.805,16.935 C2.812,16.944 2.813,16.956 2.820,16.965 C2.836,16.986 2.860,16.997 2.878,17.016 C4.692,18.856 7.212,20.000 10.000,20.000 C12.776,20.000 15.286,18.867 17.099,17.040 C17.127,17.016 17.161,17.001 17.185,16.970 C17.199,16.953 17.203,16.932 17.213,16.914 L17.213,16.914 ZM10.578,18.794 L10.578,14.925 C11.519,14.976 12.437,15.146 13.314,15.441 C12.801,16.654 12.126,17.767 11.295,18.717 C11.057,18.753 10.818,18.779 10.578,18.794 L10.578,18.794 ZM8.887,18.746 C8.036,17.778 7.348,16.641 6.829,15.397 C7.656,15.133 8.517,14.976 9.401,14.926 L9.401,18.794 C9.229,18.782 9.058,18.767 8.887,18.746 L8.887,18.746 ZM1.206,10.588 L4.590,10.588 C4.649,12.010 4.899,13.398 5.323,14.709 C4.646,15.009 3.999,15.383 3.381,15.816 C2.135,14.399 1.339,12.585 1.206,10.588 L1.206,10.588 ZM3.381,4.184 C3.984,4.607 4.618,4.969 5.279,5.265 C4.866,6.577 4.630,7.971 4.583,9.412 L1.206,9.412 C1.339,7.414 2.135,5.600 3.381,4.184 L3.381,4.184 ZM9.401,1.207 L9.401,5.074 C8.501,5.024 7.624,4.863 6.783,4.590 C7.282,3.364 7.945,2.237 8.763,1.274 C8.973,1.244 9.186,1.221 9.401,1.207 L9.401,1.207 ZM11.419,1.302 C12.216,2.247 12.865,3.346 13.357,4.541 C12.467,4.845 11.534,5.023 10.578,5.075 L10.578,1.206 C10.860,1.224 11.140,1.256 11.419,1.302 L11.419,1.302 ZM18.794,9.412 L15.576,9.412 C15.530,7.946 15.286,6.530 14.860,5.199 C15.471,4.914 16.058,4.577 16.619,4.185 C17.864,5.601 18.660,7.415 18.794,9.412 L18.794,9.412 ZM9.401,9.412 L5.761,9.412 C5.807,8.134 6.020,6.882 6.387,5.700 C7.354,6.017 8.365,6.198 9.401,6.251 L9.401,9.412 ZM9.401,10.588 L9.401,13.750 C8.377,13.801 7.378,13.981 6.423,14.292 C6.047,13.114 5.824,11.867 5.766,10.588 L9.401,10.588 ZM10.578,10.588 L14.393,10.588 C14.335,11.882 14.108,13.144 13.724,14.335 C12.717,13.994 11.661,13.802 10.578,13.749 L10.578,10.588 ZM10.578,9.412 L10.578,6.252 C11.672,6.198 12.739,5.997 13.757,5.647 C14.133,6.846 14.352,8.115 14.399,9.412 L10.578,9.412 ZM14.455,4.090 C14.122,3.285 13.722,2.521 13.252,1.805 C14.180,2.174 15.028,2.696 15.770,3.340 C15.347,3.624 14.908,3.874 14.455,4.090 L14.455,4.090 ZM5.679,4.154 C5.174,3.922 4.689,3.651 4.229,3.341 C5.026,2.649 5.949,2.100 6.958,1.728 C6.455,2.484 6.028,3.296 5.679,4.154 L5.679,4.154 ZM5.732,15.817 C6.100,16.705 6.549,17.543 7.078,18.316 C6.020,17.943 5.056,17.378 4.226,16.657 C4.708,16.334 5.211,16.053 5.732,15.817 L5.732,15.817 ZM14.400,15.883 C14.874,16.105 15.333,16.361 15.772,16.657 C14.999,17.329 14.108,17.866 13.133,18.238 C13.626,17.506 14.049,16.717 14.400,15.883 L14.400,15.883 ZM14.815,14.776 C15.253,13.446 15.509,12.034 15.570,10.588 L18.794,10.588 C18.660,12.585 17.864,14.399 16.619,15.816 C16.044,15.413 15.442,15.064 14.815,14.776 L14.815,14.776 Z"/>
</svg>