<svg 
 xmlns="http://www.w3.org/2000/svg"
 xmlns:xlink="http://www.w3.org/1999/xlink"
 width="21px" height="19px">
<path fill-rule="evenodd"  opacity="0.502" fill="rgb(255, 255, 255)"
 d="M16.675,18.344 C16.636,18.344 16.605,18.343 16.583,18.342 L4.797,18.342 C4.007,18.342 3.553,18.014 3.310,17.740 C2.779,17.138 2.822,16.322 2.846,16.096 L2.846,9.117 L4.108,9.117 L4.108,16.181 L4.102,16.217 C4.087,16.342 4.086,16.727 4.266,16.928 C4.304,16.970 4.420,17.099 4.797,17.099 L16.633,17.099 L16.648,17.101 C16.690,17.102 17.088,17.110 17.338,16.877 C17.505,16.721 17.589,16.465 17.589,16.114 L17.589,9.111 L18.851,9.111 L18.851,16.114 C18.851,17.005 18.491,17.519 18.189,17.794 C17.647,18.288 16.959,18.344 16.675,18.344 L16.675,18.344 ZM3.477,9.700 L1.538,9.700 C1.276,9.700 1.041,9.540 0.948,9.299 C0.855,9.058 0.923,8.785 1.119,8.614 L10.430,0.479 C10.667,0.272 11.023,0.270 11.263,0.474 L20.703,8.546 C20.899,8.713 20.971,8.983 20.883,9.224 C20.796,9.465 20.567,9.628 20.307,9.635 L18.238,9.694 C18.232,9.694 18.226,9.694 18.220,9.694 C17.880,9.694 17.599,9.428 17.589,9.091 C17.579,8.748 17.854,8.462 18.202,8.452 L18.654,8.439 L10.853,1.770 L3.199,8.457 L3.477,8.457 C3.826,8.457 4.108,8.736 4.108,9.079 C4.108,9.421 3.826,9.700 3.477,9.700 L3.477,9.700 ZM8.735,17.727 C8.441,17.727 8.203,17.492 8.203,17.202 L8.203,12.818 C8.203,12.724 8.226,12.335 8.597,11.964 C9.047,11.515 9.809,11.287 10.863,11.287 C11.901,11.287 12.655,11.518 13.104,11.974 C13.482,12.359 13.507,12.764 13.506,12.871 L13.506,17.186 C13.506,17.475 13.268,17.710 12.974,17.710 C12.680,17.710 12.442,17.475 12.442,17.186 L12.442,12.877 C12.438,12.855 12.416,12.759 12.283,12.654 C12.135,12.535 11.751,12.335 10.863,12.335 C9.832,12.335 9.466,12.590 9.356,12.700 C9.303,12.753 9.280,12.799 9.270,12.828 C9.269,12.833 9.268,12.836 9.267,12.839 L9.267,17.202 C9.267,17.492 9.029,17.727 8.735,17.727 L8.735,17.727 Z"/>
</svg>