<?xml version="1.0" encoding="UTF-8"?>
<svg width="32px" height="32px" viewBox="0 0 32 32" version="1.1" xmlns="http://www.w3.org/2000/svg" xmlns:xlink="http://www.w3.org/1999/xlink">
    <!-- Generator: Sketch 49 (51002) - http://www.bohemiancoding.com/sketch -->
    <title>phone</title>
    <desc>Created with Sketch.</desc>
    <defs></defs>
    <g id="Page-1" stroke="none" stroke-width="1" fill="none" fill-rule="evenodd">
        <g id="政策匹配" transform="translate(-391.000000, -2172.000000)" fill="#FFFFFF" fill-rule="nonzero">
            <g id="Group-3" transform="translate(391.000000, 2172.000000)">
                <g id="phone">
                    <path d="M31.6451526,28.0295203 L31.6374466,28.0372264 L29.4373887,30.2296129 L21.6427878,22.4464482 L23.8428457,20.2463556 C24.3167636,19.7724303 25.0873618,19.7647242 25.5689857,20.2463556 L31.6374466,26.2879409 L31.6374466,26.295647 C32.0920996,26.7580132 32.1460414,27.5247705 31.6451526,28.0295203 Z M8.4116165,22.800929 C-2.62334989,11.5076341 -0.0495518657,4.60681826 1.11405143,3.16192382 L9.08203695,11.1107697 C7.94925758,12.243567 9.05121302,13.8579957 10.2918761,15.3953634 C12.064252,17.5877499 14.1063373,19.5373941 15.8864192,20.9822885 C18.5681009,23.1631159 19.9705897,24.1263788 21.0571332,23.0475243 L28.8324691,30.8075707 C27.5417171,32.1484327 20.0399435,34.6953 8.4116165,22.800929 Z M11.8831614,8.31730717 L9.68310355,10.5096937 L1.71897103,2.55699468 L3.91902893,0.356902087 C4.39294683,-0.113170236 5.16354504,-0.124729392 5.64516892,0.356902087 L11.8831614,6.57572774 L11.8831614,6.5872869 C12.3455204,7.04194701 12.3917563,7.80485128 11.8831614,8.31345412 L11.8831614,8.31730717 Z" id="Shape"></path>
                </g>
            </g>
        </g>
    </g>
</svg>