<?xml version="1.0" encoding="UTF-8"?>
<svg width="33px" height="30px" viewBox="0 0 33 30" version="1.1" xmlns="http://www.w3.org/2000/svg" xmlns:xlink="http://www.w3.org/1999/xlink">
    <!-- Generator: Sketch 49 (51002) - http://www.bohemiancoding.com/sketch -->
    <title>shuaxin-2</title>
    <desc>Created with Sketch.</desc>
    <defs></defs>
    <g id="Page-1" stroke="none" stroke-width="1" fill="none" fill-rule="evenodd">
        <g id="政策匹配" transform="translate(-44.000000, -2173.000000)" fill="#818181" fill-rule="nonzero">
            <g id="Group-4" transform="translate(44.000000, 2173.000000)">
                <g id="shuaxin-2">
                    <path d="M22.5499082,24.3317608 C20.7161609,25.7208314 18.5698762,26.4175751 16.3752431,26.3857356 C16.086899,26.3819654 15.7987943,26.3664633 15.5115562,26.339263 C15.3955418,26.3272415 15.2795274,26.3065785 15.1618942,26.2911388 C14.9378874,26.258416 14.7139166,26.2257699 14.4963851,26.1801422 C14.3610529,26.1526427 14.2288864,26.1156951 14.0967559,26.0821272 C13.882462,26.0279732 13.6697509,25.9728974 13.4602774,25.9058385 C13.3603791,25.8722707 13.2620996,25.8335179 13.1622013,25.7974152 C12.9221144,25.7105383 12.6819556,25.6202431 12.4483799,25.5144315 C12.3952111,25.4912336 12.3436611,25.4645406 12.2920752,25.4387694 C12.0181373,25.3088765 11.7490198,25.1729921 11.4880323,25.0198629 C11.4751538,25.0129496 11.465477,25.0069581 11.4525625,25.0000832 C10.5707357,24.4768351 9.76292023,23.8226281 9.0532764,23.0570282 C9.04201671,23.0449683 9.03072104,23.0311418 9.01946135,23.0174688 C8.7986922,22.779191 8.58921873,22.5289302 8.38945809,22.2691444 C8.34758498,22.2131852 8.30725873,22.1538462 8.26534964,22.0970804 C6.82320949,20.1471505 5.95311934,17.6794157 5.95311934,14.9949111 L8.39913495,14.9949111 C8.46198059,14.9949111 8.52320742,14.9588084 8.55543965,14.8951293 C8.58689761,14.8340939 8.58378805,14.7594104 8.54738159,14.7015958 L4.43683787,8.03638435 C4.40460565,7.98476517 4.35021377,7.95035239 4.28815955,7.95035239 C4.22696869,7.95035239 4.17214513,7.98472677 4.13994888,8.03638435 L0.0293691895,14.7007125 C-0.00527325536,14.7574782 -0.010921089,14.8314503 0.0213111338,14.8950525 C0.0535433566,14.9586547 0.114770191,14.9948726 0.17761583,14.9948726 L2.62366742,14.9948726 C2.62366742,18.1507096 3.53404785,21.0760653 5.0797556,23.4947926 C5.09907335,23.5283221 5.11195185,23.5644632 5.13292438,23.598031 C5.29408549,23.845757 5.47132675,24.0736649 5.64374755,24.3076027 C5.70655722,24.3962079 5.76778406,24.4873865 5.83386731,24.5743018 C6.0868327,24.906293 6.35598615,25.217698 6.63147093,25.5230347 C6.65884673,25.5531459 6.68305687,25.5832571 6.70881387,25.6099116 C7.63006971,26.6072717 8.68062867,27.4583056 9.82836063,28.1369854 C9.85766992,28.1572595 9.88777074,28.1761984 9.91858208,28.1937512 C10.2473076,28.3847114 10.585674,28.5576203 10.9288968,28.7210426 C11.0142978,28.7605636 11.0964612,28.8044245 11.183481,28.8440607 C11.4767726,28.9747601 11.7781223,29.0900199 12.0810189,29.2000947 C12.2244091,29.2525973 12.3662165,29.3059064 12.5112615,29.3540689 C12.7771414,29.4392175 13.0478417,29.509733 13.3201248,29.5802869 C13.5021865,29.6258762 13.6810825,29.6749221 13.8663819,29.7127915 C13.942106,29.7299979 14.0145925,29.7549241 14.0903167,29.7677905 C14.3481744,29.8168364 14.6059963,29.8443743 14.8637821,29.8787871 C14.9572052,29.8899252 15.0490814,29.9071316 15.1409576,29.9183464 C15.6050153,29.9673539 16.0658354,30 16.5266554,30 C19.348162,30 22.1003118,29.0676286 24.4609624,27.2793927 C25.2134913,26.7082787 25.3971718,25.5875587 24.8702325,24.7729435 C24.3417463,23.9575601 23.3024011,23.7606084 22.5499441,24.3317608 L22.5499082,24.3317608 Z M30.3778056,14.9949111 C30.3762228,11.8485223 29.4722816,8.92919646 27.9334088,6.5156157 C27.9108175,6.47428963 27.8947374,6.43215701 27.8705632,6.39432599 C27.6788246,6.09928243 27.47097,5.82405694 27.2630434,5.5479481 C27.2389052,5.51441868 27.2163498,5.47912253 27.1905568,5.44647647 C25.7821958,3.59978492 24.0146037,2.17276807 22.0100544,1.24039662 C21.9552668,1.21454862 21.9004792,1.1853208 21.8456916,1.15951121 C21.5250242,1.01755846 21.1979535,0.892005556 20.869228,0.772444166 C20.7500119,0.730311546 20.6323427,0.683877328 20.5115079,0.645162942 C20.2246914,0.551372735 19.9330546,0.474827328 19.6397629,0.401700156 C19.477055,0.361295857 19.3158938,0.316589959 19.1515311,0.282138765 C19.0693317,0.264932371 18.9936076,0.239122781 18.913027,0.223683116 C18.6939127,0.182357045 18.4731075,0.164305695 18.2539932,0.134194507 C18.1025449,0.113531471 17.9526795,0.0877218812 17.7995764,0.0705154877 C17.4305606,0.0335678302 17.0648184,0.0180513503 16.6990402,0.0111764744 C16.632957,0.0111764744 16.5668737,0 16.5008265,0 C16.4895308,0 16.4782351,0.00345664155 16.4653926,0.00430159838 C13.6487424,0.00683646885 10.9014131,0.926303122 8.54400009,2.71200415 C7.78988838,3.28142823 7.60620788,4.40391497 8.13311119,5.21845334 C8.6600145,6.03299172 9.70094263,6.23082684 10.4533996,5.65967444 C12.2742683,4.28085853 14.3996165,3.58330826 16.5781334,3.6039713 C16.8923616,3.60654457 17.2001146,3.6228676 17.504666,3.65386216 C17.5997078,3.66588359 17.6915841,3.6805167 17.7850431,3.6934215 C18.0364257,3.72614437 18.2845706,3.76482035 18.529478,3.8173229 C18.6374343,3.83967584 18.7453907,3.86978703 18.8501454,3.89555822 C19.0902323,3.95405227 19.3303552,4.01684793 19.5655856,4.09339333 C19.639691,4.11924133 19.7122135,4.1476242 19.7863188,4.17424034 C20.0554363,4.2688755 20.3180426,4.37126891 20.5774472,4.48733525 C20.6032762,4.49935668 20.630616,4.5139898 20.656409,4.52516627 C22.2081603,5.24683621 23.5697558,6.35810806 24.6316205,7.74725549 C24.6380957,7.75585869 24.644499,7.76703516 24.6509383,7.77475499 C26.1462832,9.7419297 27.0469867,12.2569437 27.0469867,14.9947958 L24.6009711,14.9947958 C24.5356661,14.9948743 24.4756628,15.0331879 24.4447024,15.0945776 C24.4132524,15.1559113 24.4163581,15.2308286 24.4527605,15.288956 L28.564887,21.9533609 C28.5955364,22.0049801 28.65036,22.0385095 28.7131696,22.0385095 C28.7728132,22.0383824 28.8284481,22.0064273 28.8614163,21.9533609 L32.9703772,15.288956 C33.006749,15.2308321 33.0098542,15.1559439 32.9784352,15.094616 C32.947494,15.0331966 32.887487,14.9948511 32.8221665,14.9947574 L30.3777697,14.9947574 L30.3777697,14.9949111 L30.3778056,14.9949111 Z" id="Shape"></path>
                </g>
            </g>
        </g>
    </g>
</svg>