<?xml version="1.0" encoding="UTF-8"?>
<svg width="20px" height="22px" viewBox="0 0 20 22" version="1.1" xmlns="http://www.w3.org/2000/svg" xmlns:xlink="http://www.w3.org/1999/xlink">
    <!-- Generator: Sketch 49 (51002) - http://www.bohemiancoding.com/sketch -->
    <title>yaoqiu copy</title>
    <desc>Created with Sketch.</desc>
    <defs></defs>
    <g id="Page-1" stroke="none" stroke-width="1" fill="none" fill-rule="evenodd">
        <g id="人才补贴详情" transform="translate(-94.000000, -643.000000)" fill="#FFFFFF" fill-rule="nonzero">
            <g id="yaoqiu-copy" transform="translate(94.000000, 643.000000)">
                <path d="M18.7664375,0 L1.2335625,0 C0.553716019,0.00223552216 0.00293000721,0.562873351 0,1.25562702 L0,20.7430126 C0,21.4340836 0.555370128,22 1.2335625,22 L18.7664375,22 C19.4468026,21.99776 19.9978017,21.4362976 20,20.7430126 L20,1.25698739 C19.9978017,0.563702397 19.4468026,0.0022400351 18.7664375,0 Z M7.63767437,15.6035122 L6.41612708,16.8468959 L5.87277216,17.4005689 C5.72831537,17.5464521 5.53279423,17.6277122 5.32941726,17.6263913 C5.12650205,17.6273503 4.93152673,17.5461175 4.78739736,17.4005689 L4.24404245,16.8468959 L3.76343368,16.3571605 C3.46656036,16.0500263 3.46656036,15.5569487 3.76343368,15.2498145 C3.90756305,15.1042658 4.10253836,15.023033 4.30545356,15.0239921 C4.50303718,15.0239921 4.70062077,15.0988127 4.84880849,15.2498145 L5.32941726,15.7395498 L6.55096455,14.4961662 C6.69520278,14.3497845 6.89075083,14.2680236 7.09431947,14.2689834 C7.29190309,14.2689834 7.48948668,14.3451645 7.63767437,14.4961662 C7.93367213,14.8031362 7.93367213,15.2951819 7.63767437,15.6021519 L7.63767437,15.6035122 Z M7.63767437,10.171531 L6.41612708,11.416275 L5.87277216,11.9685877 C5.72853393,12.1149694 5.5329859,12.1967302 5.32941726,12.1957705 C5.12631069,12.1963682 4.93130857,12.1146348 4.78739736,11.9685877 L4.24270741,11.4176354 L3.76209864,10.9279001 C3.46522532,10.6207659 3.46522532,10.1276882 3.76209864,9.82055403 C3.90600986,9.67450689 4.10101198,9.5927735 4.30411855,9.59337125 C4.50170216,9.59337125 4.69928576,9.66955229 4.84747347,9.82055403 L5.32808222,10.3102894 L6.54962953,9.06554538 C6.69408632,8.91966213 6.88960747,8.83840206 7.09298443,8.83972297 C7.29056805,8.83972297 7.48815164,8.91454364 7.63633936,9.06554538 C7.93321267,9.37267956 7.93321267,9.86575723 7.63633936,10.1728914 L7.63767437,10.171531 Z M7.63767437,5.2061588 L6.41612708,6.44954241 L5.87277216,7.00321543 C5.72831537,7.14909868 5.53279423,7.23035875 5.32941726,7.22903784 C5.12650205,7.22999689 4.93152673,7.14876408 4.78739736,7.00321543 L4.24404245,6.44954241 L3.76343368,5.95980708 C3.46656036,5.6526729 3.46656036,5.15959522 3.76343368,4.85246104 C3.90756305,4.70691239 4.10253836,4.62567958 4.30545356,4.62663863 C4.50303718,4.62663863 4.70062077,4.7014593 4.84880849,4.85246104 L5.32941726,5.34219639 L6.55096455,4.09881276 C6.69520278,3.95243103 6.89075083,3.8706702 7.09431947,3.87162997 C7.29190309,3.87162997 7.48948668,3.94781102 7.63767437,4.09881276 C7.93367213,4.40578274 7.93367213,4.89782842 7.63767437,5.20479841 L7.63767437,5.2061588 Z M15.6945464,16.7339847 L10.1541953,16.7339847 C9.94790868,16.7347108 9.74986543,16.6515288 9.60399788,16.5028913 C9.45813033,16.3542538 9.37649857,16.1524498 9.37721114,15.9422459 C9.37614169,15.7318067 9.45761586,15.5296517 9.60352234,15.3807191 C9.74942882,15.2317864 9.94767628,15.1484182 10.1541953,15.1491467 L15.6945464,15.1491467 C15.9010654,15.1484182 16.0993129,15.2317864 16.2452194,15.3807191 C16.3911259,15.5296517 16.4726,15.7318067 16.4715306,15.9422459 C16.4722432,16.1524498 16.3906114,16.3542538 16.2447438,16.5028913 C16.0988763,16.6515288 15.9008331,16.7347108 15.6945464,16.7339847 Z M15.6945464,11.3020035 L10.1541953,11.3020035 C9.94790867,11.3027296 9.74986542,11.2195476 9.60399787,11.0709101 C9.45813032,10.9222726 9.37649857,10.7204686 9.37721114,10.5102646 C9.37649857,10.3000607 9.45813033,10.0982567 9.60399788,9.94961917 C9.74986543,9.80098165 9.94790868,9.71779974 10.1541953,9.71852584 L15.6945464,9.71852584 C15.9008331,9.71779974 16.0988763,9.80098165 16.2447438,9.94961917 C16.3906114,10.0982567 16.4722432,10.3000607 16.4715306,10.5102646 C16.4722432,10.7204686 16.3906114,10.9222726 16.2447439,11.0709101 C16.0988763,11.2195476 15.9008331,11.3027296 15.6945464,11.3020035 Z M15.6945464,6.33663121 L10.1541953,6.33663121 C9.94790868,6.33735731 9.74986543,6.25417539 9.60399788,6.10553788 C9.45813033,5.95690036 9.37649857,5.75509635 9.37721114,5.54489241 C9.37614169,5.33445322 9.45761586,5.13229829 9.60352234,4.98336564 C9.74942882,4.83443299 9.94767628,4.75106473 10.1541953,4.75179321 L15.6945464,4.75179321 C15.9010654,4.75106473 16.0993129,4.83443299 16.2452194,4.98336564 C16.3911259,5.13229829 16.4726,5.33445322 16.4715306,5.54489241 C16.4722432,5.75509635 16.3906114,5.95690036 16.2447438,6.10553788 C16.0988763,6.25417539 15.9008331,6.33735731 15.6945464,6.33663121 Z" id="Shape"></path>
            </g>
        </g>
    </g>
</svg>