<svg 
 xmlns="http://www.w3.org/2000/svg"
 xmlns:xlink="http://www.w3.org/1999/xlink"
 width="20px" height="19px">
<path fill-rule="evenodd"  opacity="0.502" fill="rgb(245, 245, 245)"
 d="M18.526,14.438 L10.709,14.438 C10.707,14.438 10.707,14.440 10.707,14.440 L10.707,17.568 C10.707,17.571 10.709,17.571 10.709,17.571 L17.703,17.571 C18.108,17.571 18.435,17.902 18.425,18.304 C18.413,18.695 18.081,19.000 17.687,19.000 L2.271,19.000 C1.867,19.000 1.540,18.669 1.549,18.266 C1.562,17.875 1.894,17.571 2.288,17.571 L9.263,17.571 C9.265,17.571 9.265,17.568 9.265,17.568 L9.265,14.445 C9.265,14.442 9.263,14.442 9.263,14.442 L1.446,14.442 C0.650,14.442 0.000,13.797 0.000,13.011 L0.000,1.432 C0.000,0.643 0.652,-0.000 1.446,-0.000 L18.526,-0.000 C19.320,-0.000 19.972,0.643 19.972,1.427 L19.972,13.006 C19.972,13.794 19.320,14.438 18.526,14.438 ZM18.529,1.434 L18.524,1.429 L1.448,1.429 L1.444,1.434 L1.444,13.006 L1.448,13.011 L18.524,13.011 L18.529,13.006 L18.529,1.434 ZM8.830,4.851 L8.070,4.851 C7.805,4.851 7.589,4.636 7.589,4.374 L7.589,3.621 C7.589,3.359 7.805,3.145 8.070,3.145 L8.830,3.145 C9.095,3.145 9.311,3.359 9.311,3.621 L9.311,4.374 C9.311,4.636 9.095,4.851 8.830,4.851 ZM6.638,4.851 L5.878,4.851 C5.613,4.851 5.397,4.636 5.397,4.374 L5.397,3.621 C5.397,3.359 5.613,3.145 5.878,3.145 L6.638,3.145 C6.903,3.145 7.119,3.359 7.119,3.621 L7.119,4.374 C7.119,4.636 6.903,4.851 6.638,4.851 ZM4.449,4.851 L3.688,4.851 C3.424,4.851 3.207,4.636 3.207,4.374 L3.207,3.621 C3.207,3.359 3.424,3.145 3.688,3.145 L4.449,3.145 C4.713,3.145 4.930,3.359 4.930,3.621 L4.930,4.374 C4.930,4.636 4.713,4.851 4.449,4.851 Z"/>
</svg>